<svg width="600" height="570" viewBox="0 0 600 570" fill="none" xmlns="http://www.w3.org/2000/svg">
<g clip-path="url(#clip0)">
<path d="M503.739 203.571L426.629 165.686C399.346 152.282 389.844 117.892 406.345 92.2704C435.501 46.9975 383.746 -6.84209 337.806 20.97L74.8054 180.19C40.8395 200.752 23.8522 240.947 32.6863 279.85C37.4774 300.949 49.4776 319.691 66.5934 332.805L177.396 417.704C197.038 432.754 213.345 451.762 225.274 473.511C269.636 554.392 367.974 587.897 451.977 550.752L463.477 545.667C536.354 513.441 582.039 445.214 577.288 359.107C572.538 273 544.968 223.827 503.739 203.571Z" stroke="#B5D0F6" stroke-width="2"/>
<path d="M492.871 193.187L415.761 155.303C388.478 141.899 378.976 107.509 395.477 81.8869C424.633 36.614 372.878 -17.2256 326.938 10.5865L63.9372 169.806C29.9712 190.369 12.9841 230.564 21.8181 269.466C26.6092 290.565 38.6093 309.307 55.7251 322.422L166.527 407.32C186.17 422.371 202.477 441.378 214.406 463.127C258.768 544.009 357.106 577.514 441.109 540.368L452.609 535.283C525.486 503.058 570.708 426.447 566.42 348.723C562.133 271 534.1 213.443 492.871 193.187Z" fill="#B3CFF4" stroke="#B5D0F6" stroke-width="2"/>
</g>
<defs>
<clipPath id="clip0">
<rect width="600" height="570" fill="white"/>
</clipPath>
</defs>
</svg>
