<svg width="600" height="570" viewBox="0 0 600 570" fill="none" xmlns="http://www.w3.org/2000/svg">
<g clip-path="url(#clip0)">
<path d="M245.229 104.639L234.442 139.679C223.961 173.724 187.865 192.827 153.82 182.346C119.774 171.865 83.6783 190.968 73.1972 225.013L45.5875 314.697C19.858 398.274 66.7527 486.885 150.33 512.614L256.608 545.332C288.283 555.084 321.865 537.311 331.616 505.636L332.729 502.021C341.866 472.343 373.332 455.69 403.01 464.827C432.689 473.964 464.154 457.311 473.291 427.633L497.303 349.634C501.944 334.56 512.414 321.963 526.386 314.644L540.07 307.475C581.823 285.603 576.155 224.134 531.106 210.266L513.534 204.856C484.552 195.934 474.81 159.82 495.374 137.533C515.937 115.246 506.196 79.1318 477.214 70.2096L371.678 37.72C318.281 21.2814 261.668 51.2423 245.229 104.639Z" stroke="#97D0BF" stroke-width="2"/>
<path d="M235.229 88.6394L224.442 123.679C213.961 157.724 177.865 176.827 143.82 166.346C109.774 155.865 73.6783 174.968 63.1972 209.013L35.5875 298.697C9.85804 382.274 56.7527 470.885 140.33 496.614L246.608 529.332C278.283 539.084 311.865 521.311 321.616 489.636L322.729 486.021C331.866 456.343 363.332 439.69 393.01 448.827C422.689 457.964 454.154 441.311 463.291 411.633L487.303 333.634C491.944 318.56 502.414 305.963 516.386 298.644L530.07 291.475C571.823 269.603 566.155 208.134 521.106 194.266L503.534 188.856C474.552 179.934 464.81 143.82 485.374 121.533C505.937 99.2461 496.196 63.1318 467.214 54.2096L361.678 21.72C308.281 5.28143 251.668 35.2423 235.229 88.6394Z" fill="#97D0BF" stroke="#97D0BF" stroke-width="2"/>
<path d="M178.736 290H143.391C125.226 290 110.5 304.726 110.5 322.891C110.5 342.266 127.162 357.443 146.452 355.64L153.937 354.94C160.541 354.323 167.193 355.369 173.289 357.981L189.66 364.997C222.782 379.192 261.208 371.792 286.689 346.311L297.692 335.308C307.173 325.827 312.5 312.967 312.5 299.558V294.608C312.5 269.42 292.08 249 266.892 249C254.796 249 243.195 253.805 234.642 262.358L226.986 270.014C214.189 282.811 196.833 290 178.736 290Z" fill="white"/>
<path d="M194.236 307H158.891C140.726 307 126 321.726 126 339.891C126 359.266 142.662 374.443 161.952 372.64L169.437 371.94C176.041 371.323 182.693 372.369 188.789 374.981L205.16 381.997C238.282 396.192 276.708 388.792 302.189 363.311L313.192 352.308C322.673 342.827 328 329.967 328 316.558V311.608C328 286.42 307.58 266 282.392 266C270.296 266 258.695 270.805 250.142 279.358L242.486 287.014C229.689 299.811 212.333 307 194.236 307Z" stroke="#97D0BF" stroke-width="2"/>
</g>
<defs>
<clipPath id="clip0">
<rect width="600" height="570" fill="white"/>
</clipPath>
</defs>
</svg>
