<svg width="36" height="36" viewBox="0 0 36 36" fill="none" xmlns="http://www.w3.org/2000/svg">
<path fill-rule="evenodd" clip-rule="evenodd" d="M16.9232 2H19.0767C22.3115 1.99998 24.8414 1.99997 26.8141 2.2652C28.8312 2.53639 30.415 3.10125 31.6569 4.34315C32.8988 5.58504 33.4636 7.16876 33.7348 9.18585C34 11.1586 34 13.6885 34 16.9233V19.0767C34 22.3115 34 24.8414 33.7348 26.8141C33.4636 28.8312 32.8988 30.415 31.6569 31.6569C30.415 32.8988 28.8312 33.4636 26.8141 33.7348C24.8414 34 22.3115 34 19.0767 34H16.9233C13.6885 34 11.1586 34 9.18585 33.7348C7.16876 33.4636 5.58504 32.8988 4.34315 31.6569C3.10125 30.415 2.53639 28.8312 2.2652 26.8141C1.99997 24.8414 1.99998 22.3115 2 19.0767V16.9232C1.99998 13.6885 1.99997 11.1586 2.2652 9.18585C2.53639 7.16876 3.10125 5.58504 4.34315 4.34315C5.58504 3.10125 7.16876 2.53639 9.18585 2.2652C11.1586 1.99997 13.6885 1.99998 16.9232 2ZM9.45235 4.24736C7.65704 4.48874 6.56572 4.949 5.75736 5.75736C4.949 6.56572 4.48874 7.65704 4.24736 9.45234C4.00212 11.2764 4 13.6719 4 17V19C4 22.3281 4.00212 24.7236 4.24736 26.5477C4.48874 28.343 4.949 29.4343 5.75736 30.2426C6.56572 31.051 7.65704 31.5113 9.45234 31.7526C11.2764 31.9979 13.6719 32 17 32H19C22.3281 32 24.7236 31.9979 26.5477 31.7526C28.343 31.5113 29.4343 31.051 30.2426 30.2426C31.051 29.4343 31.5113 28.343 31.7526 26.5477C31.9979 24.7236 32 22.3281 32 19V17C32 13.6719 31.9979 11.2764 31.7526 9.45235C31.5113 7.65704 31.051 6.56572 30.2426 5.75736C29.4343 4.949 28.343 4.48874 26.5477 4.24736C24.7236 4.00212 22.3281 4 19 4H17C13.6719 4 11.2764 4.00212 9.45235 4.24736Z" fill="white"/>
</svg>
