<svg width="64" height="64" viewBox="0 0 64 64" fill="none" xmlns="http://www.w3.org/2000/svg">
<circle cx="31" cy="33" r="31" fill="#0C6BED"/>
<circle cx="33" cy="31" r="31" fill="black"/>
<path d="M24 13H51.4338V19.7371H32.1324V27.5543H49.4779V34.2914H32.1324V42.2629H52V49H24V13Z" fill="#0C6BED"/>
<path d="M26 11H53.4338V17.7371H34.1324V25.5543H51.4779V32.2914H34.1324V40.2629H54V47H26V11Z" fill="white"/>
<path d="M9.42017 19.5777L13.3173 18.9846L15.0594 15.2861C15.107 15.1848 15.1853 15.1029 15.282 15.053C15.5245 14.9277 15.8192 15.0322 15.9405 15.2861L17.6826 18.9846L21.5798 19.5777C21.6872 19.5937 21.7854 19.6468 21.8607 19.7272C21.9516 19.825 22.0017 19.9567 22 20.0932C21.9982 20.2297 21.9448 20.36 21.8514 20.4553L19.0318 23.334L19.698 27.3989C19.7136 27.4935 19.7036 27.5907 19.6691 27.6796C19.6346 27.7686 19.5771 27.8456 19.5029 27.902C19.4288 27.9584 19.341 27.9919 19.2496 27.9987C19.1582 28.0055 19.0668 27.9854 18.9858 27.9406L15.5 26.0214L12.0142 27.9406C11.919 27.9936 11.8085 28.0113 11.7026 27.992C11.4355 27.9438 11.2559 27.6786 11.302 27.3989L11.9681 23.334L9.14849 20.4553C9.07175 20.3765 9.0211 20.2736 9.00575 20.1611C8.9643 19.8798 9.15156 19.6195 9.42017 19.5777V19.5777Z" fill="#0C6BED"/>
<path d="M3.29089 31.1692L5.98891 30.7585L7.195 28.1981C7.22794 28.128 7.28214 28.0712 7.34908 28.0367C7.51698 27.9499 7.72101 28.0223 7.80495 28.1981L9.01104 30.7585L11.7091 31.1692C11.7835 31.1803 11.8515 31.217 11.9035 31.2726C11.9665 31.3404 12.0012 31.4315 12 31.5261C11.9988 31.6206 11.9618 31.7107 11.8972 31.7767L9.9451 33.7697L10.4063 36.5839C10.4171 36.6493 10.4102 36.7167 10.3863 36.7782C10.3624 36.8398 10.3226 36.8931 10.2713 36.9321C10.2199 36.9712 10.1592 36.9944 10.0959 36.9991C10.0326 37.0038 9.96932 36.9899 9.91322 36.9589L7.49998 35.6302L5.08674 36.9589C5.02086 36.9956 4.94435 37.0078 4.87102 36.9945C4.68613 36.9611 4.5618 36.7775 4.59368 36.5839L5.05486 33.7697L3.1028 31.7767C3.04967 31.7222 3.0146 31.651 3.00398 31.5731C2.97529 31.3784 3.10493 31.1981 3.29089 31.1692V31.1692Z" fill="#0C6BED"/>
<path d="M11.2909 39.1692L13.9889 38.7585L15.195 36.1981C15.2279 36.128 15.2821 36.0712 15.3491 36.0367C15.517 35.9499 15.721 36.0223 15.805 36.1981L17.011 38.7585L19.7091 39.1692C19.7835 39.1803 19.8515 39.217 19.9035 39.2726C19.9665 39.3404 20.0012 39.4315 20 39.5261C19.9988 39.6206 19.9618 39.7107 19.8972 39.7767L17.9451 41.7697L18.4063 44.5839C18.4171 44.6493 18.4102 44.7167 18.3863 44.7782C18.3624 44.8398 18.3226 44.8931 18.2713 44.9321C18.2199 44.9712 18.1592 44.9944 18.0959 44.9991C18.0326 45.0038 17.9693 44.9899 17.9132 44.9589L15.5 43.6302L13.0867 44.9589C13.0209 44.9956 12.9443 45.0078 12.871 44.9945C12.6861 44.9611 12.5618 44.7775 12.5937 44.5839L13.0549 41.7697L11.1028 39.7767C11.0497 39.7222 11.0146 39.651 11.004 39.5731C10.9753 39.3784 11.1049 39.1981 11.2909 39.1692V39.1692Z" fill="#0C6BED"/>
<path d="M10.4202 18.5777L14.3173 17.9846L16.0594 14.2861C16.107 14.1848 16.1853 14.1029 16.282 14.053C16.5245 13.9277 16.8192 14.0322 16.9405 14.2861L18.6826 17.9846L22.5798 18.5777C22.6872 18.5937 22.7854 18.6468 22.8607 18.7272C22.9516 18.825 23.0017 18.9567 23 19.0932C22.9982 19.2297 22.9448 19.36 22.8514 19.4553L20.0318 22.334L20.698 26.3989C20.7136 26.4935 20.7036 26.5907 20.6691 26.6796C20.6346 26.7686 20.5771 26.8456 20.5029 26.902C20.4288 26.9584 20.341 26.9919 20.2496 26.9987C20.1582 27.0055 20.0668 26.9854 19.9858 26.9406L16.5 25.0214L13.0142 26.9406C12.919 26.9936 12.8085 27.0113 12.7026 26.992C12.4355 26.9438 12.2559 26.6786 12.302 26.3989L12.9681 22.334L10.1485 19.4553C10.0717 19.3765 10.0211 19.2736 10.0057 19.1611C9.9643 18.8798 10.1516 18.6195 10.4202 18.5777V18.5777Z" fill="white"/>
<path d="M4.29089 30.1692L6.98891 29.7585L8.195 27.1981C8.22794 27.128 8.28214 27.0712 8.34908 27.0367C8.51698 26.9499 8.72101 27.0223 8.80495 27.1981L10.011 29.7585L12.7091 30.1692C12.7835 30.1803 12.8515 30.217 12.9035 30.2726C12.9665 30.3404 13.0012 30.4315 13 30.5261C12.9988 30.6206 12.9618 30.7107 12.8972 30.7767L10.9451 32.7697L11.4063 35.5839C11.4171 35.6493 11.4102 35.7167 11.3863 35.7782C11.3624 35.8398 11.3226 35.8931 11.2713 35.9321C11.2199 35.9712 11.1592 35.9944 11.0959 35.9991C11.0326 36.0038 10.9693 35.9899 10.9132 35.9589L8.49998 34.6302L6.08674 35.9589C6.02086 35.9956 5.94435 36.0078 5.87102 35.9945C5.68613 35.9611 5.5618 35.7775 5.59368 35.5839L6.05486 32.7697L4.1028 30.7767C4.04967 30.7222 4.0146 30.651 4.00398 30.5731C3.97529 30.3784 4.10493 30.1981 4.29089 30.1692V30.1692Z" fill="white"/>
<path d="M12.2909 38.1692L14.9889 37.7585L16.195 35.1981C16.2279 35.128 16.2821 35.0712 16.3491 35.0367C16.517 34.9499 16.721 35.0223 16.805 35.1981L18.011 37.7585L20.7091 38.1692C20.7835 38.1803 20.8515 38.217 20.9035 38.2726C20.9665 38.3404 21.0012 38.4315 21 38.5261C20.9988 38.6206 20.9618 38.7107 20.8972 38.7767L18.9451 40.7697L19.4063 43.5839C19.4171 43.6493 19.4102 43.7167 19.3863 43.7782C19.3624 43.8398 19.3226 43.8931 19.2713 43.9321C19.2199 43.9712 19.1592 43.9944 19.0959 43.9991C19.0326 44.0038 18.9693 43.9899 18.9132 43.9589L16.5 42.6302L14.0867 43.9589C14.0209 43.9956 13.9443 44.0078 13.871 43.9945C13.6861 43.9611 13.5618 43.7775 13.5937 43.5839L14.0549 40.7697L12.1028 38.7767C12.0497 38.7222 12.0146 38.651 12.004 38.5731C11.9753 38.3784 12.1049 38.1981 12.2909 38.1692V38.1692Z" fill="white"/>
</svg>
