<svg width="55" height="55" viewBox="0 0 55 55" fill="none" xmlns="http://www.w3.org/2000/svg">
<path d="M49.9663 20.3819L49.9494 20.2974C49.9382 20.2412 49.9325 20.1905 49.9157 20.1342C49.9044 20.1004 49.8932 20.0723 49.8876 20.0385C49.8707 19.9935 49.8594 19.9428 49.837 19.8978C49.8257 19.864 49.8088 19.8359 49.792 19.8021C49.7695 19.7571 49.747 19.7177 49.7245 19.6727C49.7076 19.6445 49.6908 19.6107 49.6683 19.5826C49.6233 19.5151 49.5727 19.4475 49.5221 19.38C49.494 19.3462 49.4603 19.3068 49.4265 19.273C49.404 19.2449 49.3759 19.2224 49.3478 19.1998C49.3141 19.1661 49.2747 19.1379 49.241 19.1098C49.2129 19.0873 49.1848 19.0648 49.1511 19.0422C49.1398 19.0366 49.1286 19.0254 49.1173 19.0197L28.5682 5.32514C28.2512 5.11315 27.8785 5 27.4972 5C27.1159 5 26.7432 5.11315 26.4262 5.32514L5.86582 19.031C5.85457 19.0366 5.84333 19.0479 5.83208 19.0535C5.80397 19.076 5.77586 19.0985 5.74213 19.121C5.70277 19.1492 5.66904 19.183 5.63531 19.2111C5.6072 19.2336 5.58471 19.2618 5.5566 19.2843C5.52286 19.318 5.48913 19.3518 5.46102 19.3912C5.4048 19.4531 5.35982 19.5207 5.31484 19.5939C5.29798 19.622 5.27549 19.6501 5.25862 19.6839C5.23613 19.7233 5.21364 19.7683 5.19115 19.8134C5.17429 19.8415 5.16304 19.8753 5.14618 19.9091C5.12931 19.9541 5.11244 20.0047 5.09558 20.0498C5.08433 20.0835 5.07309 20.1117 5.06747 20.1455C5.05622 20.1961 5.04498 20.2524 5.03373 20.3087L5.01687 20.3931C5.00562 20.4776 5 20.562 5 20.6464V34.3523C5 34.4367 5.00562 34.5211 5.01687 34.6056L5.03373 34.69L5.06747 34.8532C5.07871 34.887 5.08433 34.9151 5.09558 34.9489C5.11244 34.9996 5.12931 35.0446 5.14618 35.0896C5.15742 35.1234 5.17429 35.1515 5.19115 35.1853C5.21364 35.2303 5.23051 35.2697 5.25862 35.3148C5.27549 35.3429 5.29235 35.3767 5.31484 35.4048C5.34295 35.4442 5.36544 35.4836 5.39918 35.523L5.46664 35.6075C5.49475 35.6412 5.52849 35.6806 5.56222 35.7144C5.58471 35.7425 5.61282 35.7651 5.64093 35.7876C5.67466 35.8213 5.71402 35.8495 5.74775 35.8776C5.77586 35.9001 5.80397 35.9227 5.83771 35.9452C5.84895 35.9508 5.86019 35.9621 5.87144 35.9677L26.4262 49.6735C26.741 49.8874 27.1177 50 27.5 50C27.8711 50 28.2478 49.8931 28.5738 49.6735L49.1286 35.9677C49.1398 35.9621 49.1511 35.9508 49.1623 35.9452C49.1904 35.9227 49.2185 35.9001 49.2523 35.8776C49.2916 35.8495 49.3253 35.8157 49.3591 35.7876C49.3872 35.7651 49.4097 35.7369 49.4378 35.7144C49.4715 35.6806 49.5052 35.6469 49.5334 35.6075L49.6008 35.523L49.6852 35.4048C49.702 35.3767 49.7245 35.3485 49.7414 35.3148C49.7639 35.2697 49.7864 35.2303 49.8088 35.1853C49.8257 35.1572 49.837 35.1234 49.8538 35.0896C49.8707 35.0446 49.8876 34.9939 49.9044 34.9489C49.9157 34.9208 49.9269 34.887 49.9325 34.8532C49.9494 34.8026 49.955 34.7463 49.9663 34.69L49.9831 34.6056C49.9944 34.5211 50 34.4367 50 34.3523V20.6352C49.9831 20.5507 49.9775 20.4663 49.9663 20.3819ZM29.4284 10.5429L44.5746 20.6408L37.8111 25.1663L29.434 19.5601V10.5429H29.4284ZM25.5603 10.5429V19.5601L17.1833 25.1663L10.4198 20.6408L25.5603 10.5429ZM8.86807 24.2544L13.7031 27.4909L8.86807 30.7274V24.2544ZM25.5603 44.4332L10.4198 34.3354L17.1833 29.8099L25.5603 35.4161V44.4332ZM27.4944 32.0614L20.6578 27.4909L27.4944 22.9148L34.331 27.4853L27.4944 32.0614ZM29.4284 44.4332V35.4161L37.8055 29.8099L44.569 34.3354L29.4284 44.4332ZM46.1207 30.7218L41.2856 27.4853L46.1207 24.2488V30.7218Z" fill="white"/>
</svg>
