<svg width="55" height="55" viewBox="0 0 55 55" fill="none" xmlns="http://www.w3.org/2000/svg">
<path d="M17 13.9998C17 16.1237 15.58 17.9516 12.998 17.9516C10.568 17.9516 9 16.2277 9 14.1038C9 11.9239 10.52 10 13 10C15.48 10 16.952 11.8199 17 13.9998ZM9 45.9984V19.9996H17V45.9984H9Z" fill="white"/>
<path d="M20.9999 28.8888C20.9999 25.7989 20.8979 23.217 20.7959 20.9871H27.984L28.34 24.433H28.492C29.504 22.811 31.984 20.4331 36.136 20.4331C41.2 20.4331 45 23.823 45 31.1167V46H37V32.2786C37 29.0907 35.786 26.6589 33 26.6589C30.876 26.6589 29.812 28.3788 29.254 29.7967C29.05 30.3047 29 31.0127 29 31.7226V46H20.9999V28.8888Z" fill="white"/>
</svg>
