<svg width="1889" height="1155" viewBox="0 0 1889 1155" fill="none" xmlns="http://www.w3.org/2000/svg" preserveAspectRatio="none">
<g clip-path="url(#clip0)">
<path d="M201.172 999H-26.9976H-150.504L-181 -4H1973V60.6804C1973 110.386 1932.71 150.68 1883 150.68H1743.69C1698.83 150.68 1662.45 187.051 1662.45 231.917C1662.45 276.783 1626.08 313.154 1581.22 313.154H1502.39C1452.69 313.154 1412.39 353.449 1412.39 403.154V412.707C1412.39 462.413 1372.1 502.707 1322.39 502.707H676.979C627.273 502.707 586.979 543.002 586.979 592.707V667.623C586.979 717.329 546.685 757.623 496.979 757.623H381.172C331.467 757.623 291.172 797.918 291.172 847.623V909C291.172 958.706 250.878 999 201.172 999Z" fill="#EAEBF0"/>
</g>
<defs>
<clipPath id="clip0">
<rect width="1889" height="1155" fill="white"/>
</clipPath>
</defs>
</svg>
