<svg width="1889" height="1155" viewBox="0 0 1889 1155" fill="none" xmlns="http://www.w3.org/2000/svg" preserveAspectRatio="none">
<g clip-path="url(#clip0)">
<path d="M1590.83 156H1819H1942.5L1973 1159H-181V1094.32C-181 1044.61 -140.706 1004.32 -91 1004.32H48.3088C93.1748 1004.32 129.546 967.949 129.546 923.083C129.546 878.217 165.917 841.846 210.783 841.846H289.609C339.315 841.846 379.609 801.551 379.609 751.846V742.293C379.609 692.587 419.904 652.293 469.609 652.293H1115.02C1164.73 652.293 1205.02 611.998 1205.02 562.293V487.377C1205.02 437.671 1245.32 397.377 1295.02 397.377H1410.83C1460.53 397.377 1500.83 357.082 1500.83 307.377V246C1500.83 196.294 1541.12 156 1590.83 156Z" fill="#235EAA"/>
</g>
<defs>
<clipPath id="clip0">
<rect width="1889" height="1155" fill="white"/>
</clipPath>
</defs>
</svg>
