<svg width="1786" height="900" viewBox="0 0 1786 900" fill="none" xmlns="http://www.w3.org/2000/svg">
<g clip-path="url(#clip0)">
<circle opacity="0.2" cx="288.068" cy="320.822" r="3.16858" fill="black"/>
<circle opacity="0.06" cx="288.068" cy="237.031" r="3.16858" fill="black"/>
<circle opacity="0.06" cx="288.068" cy="399.685" r="3.16858" fill="black"/>
<circle opacity="0.06" cx="288.068" cy="197.6" r="3.16858" fill="black"/>
<circle opacity="0.2" cx="288.068" cy="360.254" r="3.16858" fill="black"/>
<circle opacity="0.06" cx="288.068" cy="276.462" r="3.16858" fill="black"/>
<circle opacity="0.06" cx="288.068" cy="439.116" r="3.16858" fill="black"/>
<circle opacity="0.06" cx="271.169" cy="340.538" r="3.16858" fill="black"/>
<circle opacity="0.06" cx="271.169" cy="256.746" r="3.16858" fill="black"/>
<circle opacity="0.06" cx="271.169" cy="419.4" r="3.16858" fill="black"/>
<circle opacity="0.06" cx="271.169" cy="217.315" r="3.16858" fill="black"/>
<circle opacity="0.06" cx="271.169" cy="379.969" r="3.16858" fill="black"/>
<circle opacity="0.06" cx="271.169" cy="296.178" r="3.16858" fill="black"/>
<circle opacity="0.06" cx="271.169" cy="458.831" r="3.16858" fill="black"/>
<circle cx="321.866" cy="320.822" r="3.16858" fill="black"/>
<circle opacity="0.06" cx="321.866" cy="237.031" r="3.16858" fill="black"/>
<circle opacity="0.2" cx="321.866" cy="399.685" r="3.16858" fill="black"/>
<circle opacity="0.06" cx="321.866" cy="197.6" r="3.16858" fill="black"/>
<circle opacity="0.4" cx="321.866" cy="360.254" r="3.16858" fill="black"/>
<circle opacity="0.2" cx="321.866" cy="276.462" r="3.16858" fill="black"/>
<circle opacity="0.06" cx="321.866" cy="439.116" r="3.16858" fill="black"/>
<circle opacity="0.4" cx="304.967" cy="340.538" r="3.16858" fill="black"/>
<circle opacity="0.2" cx="304.967" cy="256.746" r="3.16858" fill="black"/>
<circle opacity="0.06" cx="304.967" cy="419.4" r="3.16858" fill="black"/>
<circle opacity="0.06" cx="304.967" cy="217.315" r="3.16858" fill="black"/>
<circle opacity="0.2" cx="304.967" cy="379.969" r="3.16858" fill="black"/>
<circle opacity="0.2" cx="304.967" cy="296.178" r="3.16858" fill="black"/>
<circle opacity="0.06" cx="304.967" cy="458.831" r="3.16858" fill="black"/>
<circle cx="355.664" cy="320.822" r="3.16858" fill="black"/>
<circle opacity="0.2" cx="355.664" cy="237.031" r="3.16858" fill="black"/>
<circle opacity="0.2" cx="355.664" cy="399.685" r="3.16858" fill="black"/>
<circle opacity="0.06" cx="355.664" cy="197.6" r="3.16858" fill="black"/>
<circle cx="355.664" cy="360.254" r="3.16858" fill="black"/>
<circle opacity="0.4" cx="355.664" cy="276.462" r="3.16858" fill="black"/>
<circle opacity="0.06" cx="355.664" cy="439.116" r="3.16858" fill="black"/>
<circle cx="338.765" cy="340.538" r="3.16858" fill="black"/>
<circle opacity="0.2" cx="338.765" cy="256.746" r="3.16858" fill="black"/>
<circle opacity="0.06" cx="338.765" cy="419.4" r="3.16858" fill="black"/>
<circle opacity="0.06" cx="338.765" cy="217.315" r="3.16858" fill="black"/>
<circle opacity="0.4" cx="338.765" cy="379.969" r="3.16858" fill="black"/>
<circle opacity="0.4" cx="338.765" cy="296.178" r="3.16858" fill="black"/>
<circle opacity="0.06" cx="338.765" cy="458.831" r="3.16858" fill="black"/>
<circle cx="389.462" cy="320.822" r="3.16858" fill="black"/>
<circle opacity="0.06" cx="389.462" cy="237.031" r="3.16858" fill="black"/>
<circle opacity="0.2" cx="389.462" cy="399.685" r="3.16858" fill="black"/>
<circle opacity="0.06" cx="389.462" cy="197.6" r="3.16858" fill="black"/>
<circle opacity="0.4" cx="389.462" cy="360.254" r="3.16858" fill="black"/>
<circle opacity="0.4" cx="389.462" cy="276.462" r="3.16858" fill="black"/>
<circle opacity="0.06" cx="389.462" cy="439.116" r="3.16858" fill="black"/>
<circle cx="372.563" cy="340.538" r="3.16858" fill="black"/>
<circle opacity="0.2" cx="372.563" cy="256.746" r="3.16858" fill="black"/>
<circle opacity="0.2" cx="372.563" cy="419.4" r="3.16858" fill="black"/>
<circle opacity="0.06" cx="372.563" cy="217.315" r="3.16858" fill="black"/>
<circle opacity="0.4" cx="372.563" cy="379.969" r="3.16858" fill="black"/>
<circle cx="372.563" cy="296.178" r="3.16858" fill="black"/>
<circle opacity="0.06" cx="372.563" cy="458.831" r="3.16858" fill="black"/>
<circle opacity="0.2" cx="423.26" cy="320.822" r="3.16858" fill="black"/>
<circle opacity="0.06" cx="423.26" cy="237.031" r="3.16858" fill="black"/>
<circle opacity="0.06" cx="423.26" cy="399.685" r="3.16858" fill="black"/>
<circle opacity="0.06" cx="423.26" cy="197.6" r="3.16858" fill="black"/>
<circle opacity="0.2" cx="423.26" cy="360.254" r="3.16858" fill="black"/>
<circle opacity="0.06" cx="423.26" cy="276.462" r="3.16858" fill="black"/>
<circle opacity="0.06" cx="423.26" cy="439.116" r="3.16858" fill="black"/>
<circle opacity="0.4" cx="406.361" cy="340.538" r="3.16858" fill="black"/>
<circle opacity="0.2" cx="406.361" cy="256.746" r="3.16858" fill="black"/>
<circle opacity="0.06" cx="406.361" cy="419.4" r="3.16858" fill="black"/>
<circle opacity="0.06" cx="406.361" cy="217.315" r="3.16858" fill="black"/>
<circle opacity="0.2" cx="406.361" cy="379.969" r="3.16858" fill="black"/>
<circle opacity="0.2" cx="406.361" cy="296.178" r="3.16858" fill="black"/>
<circle opacity="0.06" cx="406.361" cy="458.831" r="3.16858" fill="black"/>
<path d="M451 188C452.933 188 454.5 189.567 454.5 191.5V262.5C454.5 264.433 452.933 266 451 266C449.067 266 447.5 264.433 447.5 262.5V195L380 195C378.067 195 376.5 193.433 376.5 191.5C376.5 189.567 378.067 188 380 188L451 188Z" fill="black" fill-opacity="0.45"/>
<path d="M243.5 191.5C243.5 189.567 245.067 188 247 188H318C319.933 188 321.5 189.567 321.5 191.5C321.5 193.433 319.933 195 318 195H250.5V262.5C250.5 264.433 248.933 266 247 266C245.067 266 243.5 264.433 243.5 262.5V191.5Z" fill="black" fill-opacity="0.45"/>
<path fill-rule="evenodd" clip-rule="evenodd" d="M345.5 337.286C345.5 334.13 348.059 331.572 351.214 331.572C354.37 331.572 356.929 334.13 356.929 337.286C356.929 340.442 354.37 343 351.214 343C348.059 343 345.5 340.442 345.5 337.286ZM351.214 338.572C351.924 338.572 352.5 337.996 352.5 337.286C352.5 336.576 351.924 336 351.214 336C350.505 336 349.929 336.576 349.929 337.286C349.929 337.996 350.505 338.572 351.214 338.572Z" fill="black" fill-opacity="0.45"/>
<path fill-rule="evenodd" clip-rule="evenodd" d="M332.214 339.5C332.214 330.23 339.73 322.714 349 322.714C358.271 322.714 365.786 330.23 365.786 339.5C365.786 348.771 358.271 356.286 349 356.286C339.73 356.286 332.214 348.771 332.214 339.5ZM349 329.714C343.596 329.714 339.214 334.096 339.214 339.5C339.214 344.905 343.596 349.286 349 349.286C354.405 349.286 358.786 344.905 358.786 339.5C358.786 334.096 354.405 329.714 349 329.714Z" fill="black" fill-opacity="0.45"/>
<path fill-rule="evenodd" clip-rule="evenodd" d="M383.129 337.932C383.129 337.932 383.131 337.935 380 339.5C383.131 341.065 383.129 341.068 383.129 341.068L383.124 341.078L383.113 341.099L383.08 341.165L383.044 341.235L383.023 341.274L382.995 341.327L382.963 341.388C382.864 341.576 382.72 341.841 382.534 342.172C382.16 342.833 381.612 343.761 380.893 344.867C379.46 347.073 377.324 350.021 374.511 352.982C368.939 358.848 360.332 365.143 349 365.143C337.668 365.143 329.062 358.848 323.489 352.982C320.676 350.021 318.54 347.073 317.107 344.867C316.388 343.761 315.84 342.833 315.466 342.172C315.28 341.841 315.136 341.576 315.037 341.388C314.987 341.294 314.948 341.219 314.92 341.165L314.887 341.099L314.876 341.078L314.871 341.068C314.871 341.068 314.87 341.065 318 339.5C314.87 337.935 314.871 337.932 314.871 337.932L314.876 337.922L314.887 337.901L314.92 337.835C314.939 337.799 314.962 337.754 314.99 337.7L315.037 337.612C315.136 337.424 315.28 337.16 315.466 336.829C315.84 336.167 316.388 335.239 317.107 334.133C318.54 331.927 320.676 328.979 323.489 326.018C329.062 320.152 337.668 313.857 349 313.857C360.332 313.857 368.939 320.152 374.511 326.018C377.324 328.979 379.46 331.927 380.893 334.133C381.612 335.239 382.16 336.167 382.534 336.829C382.72 337.16 382.864 337.424 382.963 337.612C383.013 337.706 383.052 337.781 383.08 337.835L383.113 337.901L383.124 337.922L383.129 337.932ZM322.976 341.052C322.596 340.468 322.273 339.944 322.009 339.5C322.273 339.056 322.596 338.532 322.976 337.948C324.241 336.002 326.118 333.414 328.564 330.839C333.51 325.633 340.404 320.857 349 320.857C357.596 320.857 364.49 325.633 369.436 330.839C371.882 333.414 373.759 336.002 375.024 337.948C375.404 338.532 375.727 339.056 375.991 339.5C375.727 339.944 375.404 340.468 375.024 341.052C373.759 342.999 371.882 345.586 369.436 348.161C364.49 353.367 357.596 358.143 349 358.143C340.404 358.143 333.51 353.367 328.564 348.161C326.118 345.586 324.241 342.999 322.976 341.052Z" fill="black" fill-opacity="0.45"/>
<path d="M380 339.5L383.131 337.935C383.623 338.92 383.623 340.08 383.131 341.065L380 339.5Z" fill="black" fill-opacity="0.45"/>
<path d="M314.87 337.935L318 339.5L314.87 341.065C314.377 340.08 314.377 338.92 314.87 337.935Z" fill="black" fill-opacity="0.45"/>
<path d="M451 478C452.933 478 454.5 476.433 454.5 474.5V403.5C454.5 401.567 452.933 400 451 400C449.067 400 447.5 401.567 447.5 403.5V471H380C378.067 471 376.5 472.567 376.5 474.5C376.5 476.433 378.067 478 380 478H451Z" fill="black" fill-opacity="0.45"/>
<path d="M243.5 474.5C243.5 476.433 245.067 478 247 478H318C319.933 478 321.5 476.433 321.5 474.5C321.5 472.567 319.933 471 318 471H250.5L250.5 403.5C250.5 401.567 248.933 400 247 400C245.067 400 243.5 401.567 243.5 403.5L243.5 474.5Z" fill="black" fill-opacity="0.45"/>
<path d="M455 184.5C456.933 184.5 458.5 186.067 458.5 188V259C458.5 260.933 456.933 262.5 455 262.5C453.067 262.5 451.5 260.933 451.5 259V191.5L384 191.5C382.067 191.5 380.5 189.933 380.5 188C380.5 186.067 382.067 184.5 384 184.5L455 184.5Z" fill="#EFCF3A"/>
<path d="M247.5 188C247.5 186.067 249.067 184.5 251 184.5H322C323.933 184.5 325.5 186.067 325.5 188C325.5 189.933 323.933 191.5 322 191.5H254.5V259C254.5 260.933 252.933 262.5 251 262.5C249.067 262.5 247.5 260.933 247.5 259V188Z" fill="#EFCF3A"/>
<path fill-rule="evenodd" clip-rule="evenodd" d="M349.5 333.786C349.5 330.63 352.059 328.072 355.214 328.072C358.37 328.072 360.929 330.63 360.929 333.786C360.929 336.942 358.37 339.5 355.214 339.5C352.059 339.5 349.5 336.942 349.5 333.786ZM355.214 335.072C355.924 335.072 356.5 334.496 356.5 333.786C356.5 333.076 355.924 332.5 355.214 332.5C354.505 332.5 353.929 333.076 353.929 333.786C353.929 334.496 354.505 335.072 355.214 335.072Z" fill="#EFCF3A"/>
<path fill-rule="evenodd" clip-rule="evenodd" d="M336.214 336C336.214 326.73 343.73 319.214 353 319.214C362.271 319.214 369.786 326.73 369.786 336C369.786 345.271 362.271 352.786 353 352.786C343.73 352.786 336.214 345.271 336.214 336ZM353 326.214C347.596 326.214 343.214 330.596 343.214 336C343.214 341.405 347.596 345.786 353 345.786C358.405 345.786 362.786 341.405 362.786 336C362.786 330.596 358.405 326.214 353 326.214Z" fill="#EFCF3A"/>
<path fill-rule="evenodd" clip-rule="evenodd" d="M387.129 334.432C387.129 334.432 387.131 334.435 384 336C387.131 337.565 387.129 337.568 387.129 337.568L387.124 337.578L387.113 337.599L387.08 337.665L387.044 337.735L387.023 337.774L386.995 337.827L386.963 337.888C386.864 338.076 386.72 338.341 386.534 338.672C386.16 339.333 385.612 340.261 384.893 341.367C383.46 343.573 381.324 346.521 378.511 349.482C372.939 355.348 364.332 361.643 353 361.643C341.668 361.643 333.062 355.348 327.489 349.482C324.676 346.521 322.54 343.573 321.107 341.367C320.388 340.261 319.84 339.333 319.466 338.672C319.28 338.341 319.136 338.076 319.037 337.888C318.987 337.794 318.948 337.719 318.92 337.665L318.887 337.599L318.876 337.578L318.871 337.568C318.871 337.568 318.87 337.565 322 336C318.87 334.435 318.871 334.432 318.871 334.432L318.876 334.422L318.887 334.401L318.92 334.335C318.939 334.299 318.962 334.254 318.99 334.2L319.037 334.112C319.136 333.924 319.28 333.66 319.466 333.329C319.84 332.667 320.388 331.739 321.107 330.633C322.54 328.427 324.676 325.479 327.489 322.518C333.062 316.652 341.668 310.357 353 310.357C364.332 310.357 372.939 316.652 378.511 322.518C381.324 325.479 383.46 328.427 384.893 330.633C385.612 331.739 386.16 332.667 386.534 333.329C386.72 333.66 386.864 333.924 386.963 334.112C387.013 334.206 387.052 334.281 387.08 334.335L387.113 334.401L387.124 334.422L387.129 334.432ZM326.976 337.552C326.596 336.968 326.273 336.444 326.009 336C326.273 335.556 326.596 335.032 326.976 334.448C328.241 332.502 330.118 329.914 332.564 327.339C337.51 322.133 344.404 317.357 353 317.357C361.596 317.357 368.49 322.133 373.436 327.339C375.882 329.914 377.759 332.502 379.024 334.448C379.404 335.032 379.727 335.556 379.991 336C379.727 336.444 379.404 336.968 379.024 337.552C377.759 339.499 375.882 342.086 373.436 344.661C368.49 349.867 361.596 354.643 353 354.643C344.404 354.643 337.51 349.867 332.564 344.661C330.118 342.086 328.241 339.499 326.976 337.552Z" fill="#EFCF3A"/>
<path d="M384 336L387.131 334.435C387.623 335.42 387.623 336.58 387.131 337.565L384 336Z" fill="#EFCF3A"/>
<path d="M318.87 334.435L322 336L318.87 337.565C318.377 336.58 318.377 335.42 318.87 334.435Z" fill="#EFCF3A"/>
<path d="M455 474.5C456.933 474.5 458.5 472.933 458.5 471V400C458.5 398.067 456.933 396.5 455 396.5C453.067 396.5 451.5 398.067 451.5 400V467.5H384C382.067 467.5 380.5 469.067 380.5 471C380.5 472.933 382.067 474.5 384 474.5H455Z" fill="#EFCF3A"/>
<path d="M247.5 471C247.5 472.933 249.067 474.5 251 474.5H322C323.933 474.5 325.5 472.933 325.5 471C325.5 469.067 323.933 467.5 322 467.5H254.5L254.5 400C254.5 398.067 252.933 396.5 251 396.5C249.067 396.5 247.5 398.067 247.5 400L247.5 471Z" fill="#EFCF3A"/>
<path d="M1655 -23H1792V667H1432L1393 635L1347.5 611L1305 565H1655V-23Z" fill="white"/>
<path d="M1059.5 406.5V35.5L1000 122.5L963 243V321L1006.5 381L1059.5 406.5Z" fill="white"/>
<path d="M1121.65 0H1103.5L1025 65L967.5 175.25V350.5L1010.5 380.5L1048.5 401.5L1078 413.5L1115 425.5L1157 441.5L1222.5 478.5L1300.5 574.5L1367.5 626L1437.5 718.5H1815V0L1731.1 0C1750.93 26.5733 1766.37 56.0481 1775.36 88.2173C1790.35 141.811 1775.06 194.973 1759.58 248.832C1753.29 270.692 1746.97 292.668 1742.63 314.834C1737.19 342.599 1735.4 372 1733.61 401.269C1729.57 467.468 1725.58 532.999 1679.55 577.433C1611.85 642.789 1502 657.061 1410.41 635.55C1359.73 623.646 1326.57 583.797 1292.74 543.145C1270.43 516.326 1247.82 489.157 1219.7 469.432C1191.58 449.71 1156.86 438.335 1122.68 427.141C1068.46 409.381 1015.63 392.074 992.763 342.6C955.49 261.942 987.26 164.688 1032.5 88.2173C1057.57 40.987 1087.74 17.6724 1121.65 0Z" fill="#235EAA"/>
<path d="M1511.15 -142.056C1467.11 -156.621 1420.33 -162.254 1373.91 -157.162C1319.54 -151.198 1275.27 -119.827 1230.52 -88.1147C1216.51 -78.1831 1202.45 -68.218 1188.01 -58.9893C1171.59 -48.4877 1154.46 -38.8534 1137.4 -29.2537C1086.56 -0.658493 1036.28 27.6295 1006.7 77.6181C961.464 154.088 918.994 252.073 956.266 332.731C979.129 382.205 1031.97 399.512 1086.19 417.273C1120.36 428.467 1155.09 439.841 1183.2 459.564C1211.33 479.289 1233.93 506.457 1256.25 533.277C1290.07 573.929 1323.23 613.778 1373.91 625.681C1379.38 626.966 1384.92 628.123 1390.51 629.15C1350.62 612.707 1321.93 578.225 1292.74 543.145C1270.43 516.326 1247.82 489.157 1219.7 469.432C1191.58 449.71 1156.86 438.335 1122.68 427.141C1068.46 409.381 1015.63 392.074 992.763 342.6C955.49 261.942 987.26 164.688 1032.5 88.2173C1067.26 22.7437 1111.8 3.22955 1162.56 -19.0064C1182.33 -27.6711 1203.06 -36.749 1224.51 -49.1207C1238.94 -58.3493 1253 -68.3144 1267.02 -78.246C1311.77 -109.959 1356.03 -141.33 1410.41 -147.294C1444.19 -151 1478.18 -149.023 1511.15 -142.056Z" fill="#EFCF3A"/>
</g>
<defs>
<clipPath id="clip0">
<rect width="1786" height="900" fill="white"/>
</clipPath>
</defs>
</svg>
