<svg width="55" height="55" fill="none" xmlns="http://www.w3.org/2000/svg"><path d="M27.5031 2.36349e-06C12.3076 -0.00630932 0 12.6297 0 28.2258C0 40.5589 7.69914 51.0426 18.4214 54.8927C19.8654 55.2651 19.6442 54.211 19.6442 53.4915V48.6C11.306 49.6035 10.968 43.9356 10.4089 42.9889C9.27829 41.007 6.60541 40.5021 7.4042 39.5553C9.30287 38.5518 11.2384 39.8078 13.4812 43.2098C15.1033 45.6776 18.2678 45.2611 19.8715 44.8508C20.2218 43.3676 20.9714 42.0421 22.0037 41.0133C13.3644 39.4228 9.76371 34.0073 9.76371 27.5694C9.76371 24.4451 10.7653 21.5733 12.7315 19.2569C11.478 15.4384 12.8483 12.1689 13.0326 11.6829C16.6026 11.3547 20.3139 14.3086 20.6027 14.5421C22.6304 13.9804 24.9469 13.6837 27.5399 13.6837C30.1452 13.6837 32.4679 13.993 34.514 14.5611C35.2084 14.0182 38.6493 11.481 41.9674 11.7902C42.1456 12.2762 43.4851 15.4699 42.3053 19.238C44.2962 21.5607 45.31 24.4578 45.31 27.5884C45.31 34.0389 41.6847 39.4606 33.0209 41.0259C33.763 41.7756 34.3522 42.6696 34.7542 43.6557C35.1561 44.6419 35.3627 45.7005 35.362 46.7696V53.8702C35.4111 54.4383 35.362 55 36.2837 55C47.1657 51.2319 55 40.6725 55 28.2322C55 12.6297 42.6863 2.36349e-06 27.5031 2.36349e-06V2.36349e-06Z" fill="#fff"/></svg>