<svg width="1889" height="1155" fill="none" xmlns="http://www.w3.org/2000/svg" preserveAspectRatio="none"><g clip-path="url(#clip0)"><path d="M258.5 59H35.5H-86L-116 1154H2003V1076.98C2003 1027.28 1962.71 986.982 1913 986.982H1786.37C1737.29 986.982 1697.5 947.196 1697.5 898.116C1697.5 849.037 1657.71 809.251 1608.63 809.251H1541.5C1491.79 809.251 1451.5 768.956 1451.5 719.251V691.898C1451.5 642.192 1411.21 601.898 1361.5 601.898H729.5C679.794 601.898 639.5 561.603 639.5 511.898V413.043C639.5 363.338 599.206 323.043 549.5 323.043H438.5C388.794 323.043 348.5 282.749 348.5 233.043V149C348.5 99.2944 308.206 59 258.5 59Z" fill="#EFCF3A"/><path d="M201.172 156H-26.9976H-150.504L-181 1159H1973V1094.32C1973 1044.61 1932.71 1004.32 1883 1004.32H1743.69C1698.83 1004.32 1662.45 967.949 1662.45 923.083C1662.45 878.217 1626.08 841.846 1581.22 841.846H1502.39C1452.69 841.846 1412.39 801.551 1412.39 751.846V742.293C1412.39 692.587 1372.1 652.293 1322.39 652.293H676.979C627.273 652.293 586.979 611.998 586.979 562.293V487.377C586.979 437.671 546.685 397.377 496.979 397.377H381.172C331.467 397.377 291.172 357.082 291.172 307.377V246C291.172 196.294 250.878 156 201.172 156Z" fill="#235EAA"/></g><defs><clipPath id="clip0"><path fill="#fff" d="M0 0H1889V1155H0z"/></clipPath></defs></svg>