<svg width="55" height="55" fill="none" xmlns="http://www.w3.org/2000/svg"><path d="M49.4851 6H10.8808C7.83931 6 5.36587 8.4518 5.36587 11.4667V25.1333H10.8808V16.9333L28.5285 30.0533C29.0059 30.4078 29.5864 30.5993 30.1829 30.5993C30.7795 30.5993 31.3599 30.4078 31.8374 30.0533L49.4851 16.9333V41.5333H27.4255V47H49.4851C52.5266 47 55 44.5482 55 41.5333V11.4667C55 8.4518 52.5266 6 49.4851 6ZM30.1829 24.45L12.7172 11.4667H47.6486L30.1829 24.45Z" fill="#fff"/><path d="M0 28H19.3022V33.5H0V28ZM5.5149 36.25H22.0596V41.75H5.5149V36.25ZM13.7873 44.5H24.8171V50H13.7873V44.5Z" fill="#fff"/></svg>