<svg width="36" height="36" fill="none" xmlns="http://www.w3.org/2000/svg"><path fill-rule="evenodd" clip-rule="evenodd" d="M8.5243 32.6972C10.7288 32.9936 13.6726 33 18 33C22.3274 33 25.2712 32.9936 27.4757 32.6972C29.5939 32.4125 30.5749 31.9104 31.2426 31.2426C31.9104 30.5749 32.4125 29.5939 32.6972 27.4757C32.9936 25.2712 33 22.3274 33 18C33 13.6726 32.9936 10.7288 32.6972 8.5243C32.4125 6.40614 31.9104 5.42507 31.2426 4.75736C30.5749 4.08965 29.5939 3.58753 27.4757 3.30275C25.2712 3.00637 22.3274 3 18 3C13.6726 3 10.7288 3.00637 8.5243 3.30275C6.40614 3.58753 5.42507 4.08965 4.75736 4.75736C4.08965 5.42507 3.58753 6.40614 3.30275 8.5243C3.00637 10.7288 3 13.6726 3 18C3 22.3274 3.00637 25.2712 3.30275 27.4757C3.58753 29.5939 4.08965 30.5749 4.75736 31.2426C5.42507 31.9104 6.40614 32.4125 8.5243 32.6972ZM2.63604 2.63604C0 5.27208 0 9.51472 0 18C0 26.4853 0 30.7279 2.63604 33.364C5.27208 36 9.51472 36 18 36C26.4853 36 30.7279 36 33.364 33.364C36 30.7279 36 26.4853 36 18C36 9.51472 36 5.27208 33.364 2.63604C30.7279 0 26.4853 0 18 0C9.51472 0 5.27208 0 2.63604 2.63604Z" fill="#CCC"/></svg>