<svg width="26" height="26" fill="none" xmlns="http://www.w3.org/2000/svg"><path d="M16.9525 10.8176H13.221V6.58005C13.221 6.4409 13.1071 6.32706 12.968 6.32706H11.0706C10.9314 6.32706 10.8176 6.4409 10.8176 6.58005V10.8176H7.08602C6.94688 10.8176 6.83303 10.9314 6.83303 11.0706V12.968C6.83303 13.1071 6.94688 13.221 7.08602 13.221H10.8176V17.4585C10.8176 17.5977 10.9314 17.7115 11.0706 17.7115H12.968C13.1071 17.7115 13.221 17.5977 13.221 17.4585V13.221H16.9525C17.0917 13.221 17.2055 13.1071 17.2055 12.968V11.0706C17.2055 10.9314 17.0917 10.8176 16.9525 10.8176ZM25.9336 24.2259L21.3166 19.6089C25.1778 14.9002 24.909 7.92404 20.4944 3.51257C15.8141 -1.17086 8.21182 -1.17086 3.51257 3.51257C-1.17086 8.21182 -1.17086 15.8141 3.51257 20.4944C7.92404 24.909 14.9002 25.1778 19.6089 21.3166L24.2259 25.9336C24.3271 26.0221 24.4884 26.0221 24.5738 25.9336L25.9336 24.5738C26.0221 24.4884 26.0221 24.3271 25.9336 24.2259ZM18.8183 18.8183C15.0615 22.572 8.9771 22.572 5.22024 18.8183C1.46654 15.0615 1.46654 8.9771 5.22024 5.22024C8.9771 1.46654 15.0615 1.46654 18.8183 5.22024C22.572 8.9771 22.572 15.0615 18.8183 18.8183Z" fill="#000"/></svg>