<svg width="55" height="55" fill="none" xmlns="http://www.w3.org/2000/svg"><path d="M34.075 15.786H44.8049V18.3897H34.075V15.786ZM23.3237 26.0879C25.6956 24.9528 26.938 23.2259 26.938 20.5577C26.938 15.2803 23.0118 14 18.4778 14H6V40.4889H18.8274C23.6356 40.4889 28.1481 38.1757 28.1481 32.7962C28.1481 29.4716 26.5776 27.0131 23.3237 26.0879V26.0879ZM11.8194 18.5188H17.2784C19.3814 18.5188 21.2692 19.1052 21.2692 21.5475C21.2692 23.7962 19.8009 24.6999 17.7194 24.6999H11.8194V18.5188ZM18.0314 35.9916H11.814V28.697H18.1551C20.7152 28.697 22.3341 29.7675 22.3341 32.4788C22.3341 35.147 20.4033 35.9916 18.0314 35.9916V35.9916ZM49 31.1769C49 25.5015 45.6816 20.7729 39.6793 20.7729C33.8438 20.7729 29.8745 25.168 29.8745 30.9295C29.8745 36.9008 33.634 41 39.6793 41C44.2563 41 47.2198 38.9396 48.645 34.5445H44.0035C43.4979 36.1853 41.4434 37.046 39.846 37.046C36.7588 37.046 35.1453 35.2385 35.1453 32.1668H48.9624C48.9785 31.8494 49 31.5158 49 31.1769V31.1769ZM35.1453 28.8422C35.3121 26.3192 36.9955 24.743 39.5126 24.743C42.1587 24.743 43.4818 26.2977 43.7131 28.8422H35.1453Z" fill="#fff"/></svg>