<svg width="600" height="570" fill="none" xmlns="http://www.w3.org/2000/svg"><g clip-path="url(#clip0)" stroke="#F5D7DC" stroke-width="2"><path d="M286.092 131.013L247.919 182.982C226.915 211.577 185.383 214.764 160.261 189.71C115.33 144.898 41.4066 194.476 65.8135 253.052L82.009 291.922C89.3161 309.459 88.7525 329.287 80.4609 346.381L71.8201 364.195C42.5045 424.632 74.6476 497.361 138.649 517.752C173.143 528.743 211.315 522.492 240.239 500.719L243.437 498.311C249.201 493.973 255.345 490.165 261.796 486.935L319.242 458.17C348.728 443.406 384.089 446.994 410.009 467.382L441.559 492.199C482.89 524.709 543.669 496.812 545.966 444.278C546.264 437.457 547.642 430.728 550.049 424.339L579.468 346.243C600.746 289.761 565.266 227.884 505.772 217.716L497.301 216.268C465.962 210.912 440.497 188.01 431.858 157.413C413.208 91.361 326.724 75.6975 286.092 131.013Z"/><path d="M277.592 116.513L239.419 168.482C218.415 197.077 176.883 200.264 151.761 175.21C106.83 130.398 32.9066 179.976 57.3135 238.552L73.509 277.422C80.8161 294.959 80.2525 314.787 71.9609 331.881L63.3201 349.695C34.0045 410.132 66.1476 482.861 130.149 503.252C164.643 514.243 202.815 507.992 231.739 486.219L234.937 483.811C240.701 479.473 246.845 475.665 253.296 472.435L310.742 443.67C340.228 428.906 375.589 432.494 401.509 452.882L433.059 477.699C474.39 510.209 535.169 482.312 537.466 429.778C537.764 422.957 539.142 416.228 541.549 409.839L570.968 331.743C592.246 275.261 556.766 213.384 497.272 203.216L488.801 201.768C457.462 196.412 431.997 173.51 423.358 142.913C404.708 76.861 318.224 61.1975 277.592 116.513Z" fill="#F5D7DC"/></g><defs><clipPath id="clip0"><path fill="#fff" d="M0 0H600V570H0z"/></clipPath></defs></svg>