<svg width="55" height="55" fill="none" xmlns="http://www.w3.org/2000/svg"><path fill-rule="evenodd" clip-rule="evenodd" d="M14.1117 5.70618C13.2195 5.70618 12.3638 6.0575 11.7329 6.68288C11.1021 7.30825 10.7476 8.15643 10.7476 9.04084V46.9592C10.7476 47.8436 11.1021 48.6918 11.7329 49.3171C12.3638 49.9425 13.2195 50.2938 14.1117 50.2938H40.8883C41.7805 50.2938 42.6362 49.9425 43.2671 49.3171C43.8979 48.6918 44.2524 47.8436 44.2524 46.9592V24.6653H31.3252C29.6811 24.6653 28.1044 24.0179 26.9418 22.8655C25.7793 21.7131 25.1262 20.1502 25.1262 18.5204V5.70618H14.1117ZM29.8738 9.03394L40.8953 19.9592H31.3252C30.9403 19.9592 30.5711 19.8076 30.2989 19.5378C30.0267 19.2679 29.8738 18.902 29.8738 18.5204V9.03394ZM8.37585 3.35511C9.89709 1.84716 11.9603 1 14.1117 1H25.9165C27.56 1.00025 29.1361 1.64744 30.2984 2.79931L47.1847 19.5381C48.3467 20.6902 48.9998 22.2528 49 23.882V46.9592C49 49.0917 48.1454 51.1369 46.6241 52.6449C45.1029 54.1528 43.0397 55 40.8883 55H14.1117C11.9603 55 9.89709 54.1528 8.37585 52.6449C6.85462 51.1369 6 49.0917 6 46.9592V9.04084C6 6.90827 6.85462 4.86306 8.37585 3.35511ZM40.2508 29.506V34.2122H14.7492V29.506H40.2508ZM40.2508 38.9183V43.6245H14.7492V38.9183H40.2508Z" fill="#fff"/></svg>